<?xml version="1.0" standalone="no"?><svg xmlns="http://www.w3.org/2000/svg" viewBox="0 0 1440 320"><path fill="#273036" fill-opacity="1" d="M0,96L16,101.3C32,107,64,117,96,117.3C128,117,160,107,192,122.7C224,139,256,181,288,202.7C320,224,352,224,384,192C416,160,448,96,480,80C512,64,544,96,576,96C608,96,640,64,672,69.3C704,75,736,117,768,133.3C800,149,832,139,864,144C896,149,928,171,960,165.3C992,160,1024,128,1056,144C1088,160,1120,224,1152,234.7C1184,245,1216,203,1248,160C1280,117,1312,75,1344,53.3C1376,32,1408,32,1424,32L1440,32L1440,0L1424,0C1408,0,1376,0,1344,0C1312,0,1280,0,1248,0C1216,0,1184,0,1152,0C1120,0,1088,0,1056,0C1024,0,992,0,960,0C928,0,896,0,864,0C832,0,800,0,768,0C736,0,704,0,672,0C640,0,608,0,576,0C544,0,512,0,480,0C448,0,416,0,384,0C352,0,320,0,288,0C256,0,224,0,192,0C160,0,128,0,96,0C64,0,32,0,16,0L0,0Z"></path></svg>